<svg width="27" height="30" viewBox="0 0 27 30" fill="none" xmlns="http://www.w3.org/2000/svg">
<path d="M21.3325 10.3076C21.3575 10.3076 21.3825 10.3001 21.4075 10.2851L26.1925 7.52013L26.205 7.51513C26.5081 8.09369 26.6668 8.73698 26.6675 9.39013V20.1601C26.6675 21.5801 25.9275 22.8876 24.7075 23.6001C24.6925 23.6151 24.68 23.6201 24.6675 23.6276L15.3325 29.0151C14.7248 29.3667 14.0346 29.5504 13.3325 29.5476C12.6305 29.5502 11.9403 29.3665 11.3325 29.0151L8 27.0951V22.0901C8.00023 21.9732 8.03117 21.8584 8.08973 21.7571C8.14829 21.6559 8.23242 21.5719 8.33368 21.5134C8.43495 21.4549 8.5498 21.4241 8.66674 21.4239C8.78368 21.4238 8.8986 21.4544 9 21.5126L11.3325 22.8601C11.9406 23.2112 12.6304 23.396 13.3325 23.396C14.0346 23.396 14.7244 23.2112 15.3325 22.8601L20.3325 19.9751C20.6366 19.7996 20.8891 19.547 21.0647 19.2429C21.2402 18.9388 21.3326 18.5938 21.3325 18.2426V10.3076ZM18.6675 11.8676V16.7001C18.6668 17.1704 18.5004 17.6254 18.1975 17.9851C18.0482 18.164 17.8689 18.3155 17.6675 18.4326L15.3325 19.7801C14.518 20.2504 13.5637 20.4186 12.6375 20.2551C12.1781 20.1741 11.7365 20.0133 11.3325 19.7801L8 17.8551L6.6675 17.0876L6.335 16.8951C6.2336 16.8369 6.11868 16.8063 6.00174 16.8064C5.8848 16.8066 5.76995 16.8374 5.66868 16.8959C5.56742 16.9544 5.48329 17.0384 5.42473 17.1396C5.36617 17.2409 5.33523 17.3557 5.335 17.4726V25.5551L2 23.6301L1.975 23.6076C0.7475 22.8951 1.31772e-08 21.5826 1.31772e-08 20.1626V9.38763C-5.26527e-05 8.73468 0.157764 8.09141 0.46 7.51263L5.26 10.2851L6.5925 11.0601L7.925 11.8251L11.2575 13.7501C11.6792 13.9935 12.1308 14.1576 12.6125 14.2426C13.0925 14.326 13.5725 14.326 14.0525 14.2426C14.5342 14.1593 14.9858 13.9951 15.4075 13.7501L18.6675 11.8676ZM18.6675 11.6951L15.3325 13.6201C14.518 14.0904 13.5637 14.2586 12.6375 14.0951C12.1781 14.0141 11.7365 13.8533 11.3325 13.6201L8 11.6951L6.6675 10.9276L5.3325 10.1551L0.6625 7.45513L0.5325 7.38013C0.876184 6.78786 1.36704 6.29441 1.9575 5.94763C1.97019 5.93701 1.98455 5.92856 2 5.92263L11.3325 0.535126C11.9407 0.184542 12.6305 0 13.3325 0C14.0345 0 14.7243 0.184542 15.3325 0.535126L18.6575 2.45513L11.665 6.49763C11.5638 6.55629 11.4798 6.64052 11.4214 6.74187C11.363 6.84323 11.3322 6.95815 11.3322 7.07513C11.3322 7.1921 11.363 7.30703 11.4214 7.40838C11.4798 7.50974 11.5638 7.59396 11.665 7.65263L18.665 11.6951H18.6675ZM26.1325 7.38263L26.0025 7.45763L21.3325 10.1551L16.9975 7.65263C16.8957 7.59448 16.811 7.51043 16.7521 7.40901C16.6932 7.30759 16.6622 7.1924 16.6622 7.07513C16.6622 6.95785 16.6932 6.84266 16.7521 6.74124C16.811 6.63982 16.8957 6.55577 16.9975 6.49763L18.66 5.53513L21.3325 3.99513L24.665 5.92013C24.67 5.93013 24.685 5.93513 24.69 5.94263C25.2855 6.29125 25.7814 6.78713 26.13 7.38263H26.1325Z" fill="#5E35B1"/>
</svg>
