<svg width="24" height="28" viewBox="0 0 24 28" fill="none" xmlns="http://www.w3.org/2000/svg">
<path d="M13.56 0C13.3227 0.675674 13.2705 1.40254 13.4088 2.1052C13.5471 2.80786 13.8709 3.4607 14.3467 3.996L11.996 6.34667C11.42 5.83287 10.7077 5.49669 9.94487 5.37869C9.18209 5.26068 8.40146 5.36589 7.69713 5.68162C6.9928 5.99734 6.39487 6.51011 5.97544 7.15806C5.55601 7.80601 5.33301 8.56148 5.33333 9.33333V14.332C5.33316 14.9012 5.44511 15.4648 5.66281 15.9907C5.8805 16.5166 6.19966 16.9945 6.60207 17.397C7.00447 17.7995 7.48223 18.1188 8.00806 18.3367C8.5339 18.5545 9.09749 18.6667 9.66667 18.6667H14.6667C15.4383 18.6668 16.1934 18.4437 16.8411 18.0243C17.4888 17.605 18.0014 17.0072 18.3171 16.3031C18.6327 15.5991 18.7381 14.8187 18.6203 14.0562C18.5025 13.2936 18.1667 12.5814 17.6533 12.0053L20.0053 9.652C20.5399 10.129 21.1928 10.4536 21.8957 10.592C22.5987 10.7304 23.3259 10.6774 24.0013 10.4387L23.9987 21.3333C23.9987 22.0406 23.7177 22.7189 23.2176 23.219C22.7175 23.719 22.0392 24 21.332 24H2.66667C1.95942 24 1.28115 23.719 0.781048 23.219C0.280951 22.7189 0 22.0406 0 21.3333V2.66667C0 1.95942 0.280951 1.28115 0.781048 0.781048C1.28115 0.280951 1.95942 0 2.66667 0H13.56ZM22.3333 0C23.2533 0 24 0.746667 24 1.66667V6.66667C24 7.02029 23.8595 7.35943 23.6095 7.60948C23.3594 7.85952 23.0203 8 22.6667 8C22.313 8 21.9739 7.85952 21.7239 7.60948C21.4738 7.35943 21.3333 7.02029 21.3333 6.66667V4.552L12.552 13.3333H14.6667C15.0203 13.3333 15.3594 13.4738 15.6095 13.7239C15.8595 13.9739 16 14.313 16 14.6667C16 15.0203 15.8595 15.3594 15.6095 15.6095C15.3594 15.8595 15.0203 16 14.6667 16H9.66667C8.74667 16 8 15.2533 8 14.3333V9.33333C8 8.97971 8.14048 8.64057 8.39052 8.39052C8.64057 8.14048 8.97971 8 9.33333 8C9.68696 8 10.0261 8.14048 10.2761 8.39052C10.5262 8.64057 10.6667 8.97971 10.6667 9.33333V11.448L19.448 2.66667H17.3333C16.9797 2.66667 16.6406 2.52619 16.3905 2.27614C16.1405 2.02609 16 1.68696 16 1.33333C16 0.979711 16.1405 0.640573 16.3905 0.390524C16.6406 0.140476 16.9797 0 17.3333 0H22.3333Z" fill="#5E35B1"/>
</svg>
