<svg width="311" height="112" viewBox="0 0 311 112" fill="none" xmlns="http://www.w3.org/2000/svg">
<path d="M116.5 27.6972V84.0972C116.5 89.1972 110.3 91.7972 106.7 88.0972L92.7998 74.0972V37.6972L106.7 23.6972C110.3 20.0972 116.5 22.5972 116.5 27.6972Z" fill="white"/>
<path d="M33 27.6972V84.0972C33 89.1972 39.2 91.7972 42.8 88.0972L56.7 74.0972V37.6972L42.8 23.6972C39.2 20.0972 33 22.5972 33 27.6972Z" fill="white"/>
<path d="M89.2998 47.6972V70.4972L74.7998 55.8972L60.2998 70.4972V47.6972L63.4998 44.4972L74.7998 33.0972L86.0998 44.4972L89.2998 47.6972Z" fill="#7B4FD4"/>
<path d="M137.183 45.8389L132.401 29.2069H135.45L139.516 44.476H138.638L142.403 29.2069H145.868L149.587 44.476H148.733L152.798 29.2069H155.709L150.927 45.8389H147.508L143.72 30.9163H144.436L140.601 45.8389H137.183ZM162.093 46.0699C160.846 46.0699 159.745 45.8081 158.79 45.2845C157.851 44.7609 157.119 44.0371 156.596 43.1131C156.072 42.1737 155.81 41.1034 155.81 39.9022C155.81 38.701 156.072 37.6461 156.596 36.7375C157.119 35.8289 157.851 35.1205 158.79 34.6123C159.745 34.0887 160.846 33.8269 162.093 33.8269C163.356 33.8269 164.457 34.0887 165.397 34.6123C166.336 35.1205 167.068 35.8289 167.591 36.7375C168.115 37.6461 168.377 38.701 168.377 39.9022C168.377 41.1034 168.107 42.1737 167.568 43.1131C167.045 44.0371 166.313 44.7609 165.374 45.2845C164.434 45.8081 163.341 46.0699 162.093 46.0699ZM162.093 43.7368C162.709 43.7368 163.264 43.5828 163.757 43.2748C164.249 42.9514 164.634 42.5048 164.912 41.935C165.189 41.3498 165.327 40.6645 165.327 39.8791C165.327 38.7241 165.019 37.8155 164.403 37.1533C163.803 36.4911 163.033 36.16 162.093 36.16C161.154 36.16 160.376 36.4911 159.76 37.1533C159.144 37.8155 158.836 38.7241 158.836 39.8791C158.836 40.6645 158.975 41.3498 159.252 41.935C159.545 42.5048 159.93 42.9514 160.407 43.2748C160.9 43.5828 161.462 43.7368 162.093 43.7368ZM170.518 45.8389V34.0579H173.359V36.8992H173.428V45.8389H170.518ZM173.428 39.6943L173.128 36.8992C173.405 35.8982 173.875 35.1359 174.537 34.6123C175.199 34.0887 175.992 33.8269 176.916 33.8269C177.24 33.8269 177.471 33.8577 177.609 33.9193V36.6682C177.532 36.6374 177.424 36.622 177.286 36.622C177.147 36.6066 176.978 36.5989 176.778 36.5989C175.653 36.5989 174.814 36.8453 174.26 37.3381C173.705 37.8309 173.428 38.6163 173.428 39.6943ZM179.518 45.8389V29.0452H182.429V45.8389H179.518ZM187.118 45.8389L181.759 39.7174L186.957 34.0579H190.468L184.462 40.2487L184.624 39.163L190.699 45.8389H187.118ZM193.414 45.8389V32.9722C193.414 31.6786 193.768 30.693 194.476 30.0154C195.2 29.3224 196.278 28.9759 197.71 28.9759C198.034 28.9759 198.303 28.9913 198.519 29.0221C198.734 29.0529 198.942 29.0991 199.142 29.1607V31.4245C199.035 31.3783 198.896 31.3475 198.727 31.3321C198.557 31.3013 198.365 31.2859 198.149 31.2859C197.533 31.2859 197.071 31.4399 196.763 31.7479C196.47 32.0405 196.324 32.4717 196.324 33.0415V45.8389H193.414ZM191.288 36.3448V34.0579H198.888V36.3448H191.288ZM205.857 46.0699C204.61 46.0699 203.509 45.8081 202.554 45.2845C201.614 44.7609 200.883 44.0371 200.359 43.1131C199.836 42.1737 199.574 41.1034 199.574 39.9022C199.574 38.701 199.836 37.6461 200.359 36.7375C200.883 35.8289 201.614 35.1205 202.554 34.6123C203.509 34.0887 204.61 33.8269 205.857 33.8269C207.12 33.8269 208.221 34.0887 209.16 34.6123C210.1 35.1205 210.831 35.8289 211.355 36.7375C211.878 37.6461 212.14 38.701 212.14 39.9022C212.14 41.1034 211.871 42.1737 211.332 43.1131C210.808 44.0371 210.077 44.7609 209.137 45.2845C208.198 45.8081 207.104 46.0699 205.857 46.0699ZM205.857 43.7368C206.473 43.7368 207.027 43.5828 207.52 43.2748C208.013 42.9514 208.398 42.5048 208.675 41.935C208.952 41.3498 209.091 40.6645 209.091 39.8791C209.091 38.7241 208.783 37.8155 208.167 37.1533C207.566 36.4911 206.796 36.16 205.857 36.16C204.918 36.16 204.14 36.4911 203.524 37.1533C202.908 37.8155 202.6 38.7241 202.6 39.8791C202.6 40.6645 202.739 41.3498 203.016 41.935C203.308 42.5048 203.693 42.9514 204.171 43.2748C204.664 43.5828 205.226 43.7368 205.857 43.7368ZM214.281 45.8389V34.0579H217.122V36.8992H217.192V45.8389H214.281ZM217.192 39.6943L216.891 36.8992C217.169 35.8982 217.638 35.1359 218.301 34.6123C218.963 34.0887 219.756 33.8269 220.68 33.8269C221.003 33.8269 221.234 33.8577 221.373 33.9193V36.6682C221.296 36.6374 221.188 36.622 221.049 36.622C220.911 36.6066 220.741 36.5989 220.541 36.5989C219.417 36.5989 218.578 36.8453 218.023 37.3381C217.469 37.8309 217.192 38.6163 217.192 39.6943ZM228.139 46.0699C226.953 46.0699 225.906 45.8081 224.997 45.2845C224.104 44.7609 223.396 44.0371 222.872 43.1131C222.364 42.1737 222.11 41.1111 222.11 39.9253C222.11 38.7395 222.364 37.6923 222.872 36.7837C223.396 35.8597 224.104 35.1359 224.997 34.6123C225.906 34.0887 226.953 33.8269 228.139 33.8269C229.109 33.8269 229.987 34.0117 230.772 34.3813C231.558 34.7355 232.205 35.2437 232.713 35.9059C233.221 36.5527 233.544 37.3073 233.683 38.1697H230.888C230.719 37.5383 230.395 37.0455 229.918 36.6913C229.44 36.3371 228.863 36.16 228.185 36.16C227.554 36.16 227.007 36.314 226.545 36.622C226.099 36.93 225.752 37.3689 225.506 37.9387C225.259 38.5085 225.136 39.1707 225.136 39.9253C225.136 40.6953 225.259 41.3652 225.506 41.935C225.752 42.5048 226.106 42.9514 226.568 43.2748C227.03 43.5828 227.569 43.7368 228.185 43.7368C228.863 43.7368 229.44 43.5597 229.918 43.2055C230.395 42.8513 230.719 42.3585 230.888 41.7271H233.683C233.544 42.5895 233.213 43.3518 232.69 44.014C232.182 44.6608 231.535 45.169 230.749 45.5386C229.979 45.8928 229.109 46.0699 228.139 46.0699ZM241.002 46.0699C239.754 46.0699 238.661 45.8081 237.722 45.2845C236.798 44.7609 236.074 44.0371 235.55 43.1131C235.042 42.1891 234.788 41.1265 234.788 39.9253C234.788 38.7241 235.042 37.6692 235.55 36.7606C236.074 35.8366 236.798 35.1205 237.722 34.6123C238.646 34.0887 239.724 33.8269 240.956 33.8269C242.126 33.8269 243.142 34.0733 244.005 34.5661C244.867 35.0435 245.537 35.7211 246.014 36.5989C246.492 37.4767 246.731 38.5008 246.731 39.6712C246.731 39.8868 246.723 40.087 246.707 40.2718C246.692 40.4566 246.669 40.6414 246.638 40.8262H236.59V38.7934H244.397L243.797 39.3478C243.797 38.239 243.543 37.4074 243.035 36.853C242.526 36.2986 241.818 36.0214 240.909 36.0214C239.924 36.0214 239.138 36.3602 238.553 37.0378C237.983 37.7154 237.698 38.6933 237.698 39.9715C237.698 41.2343 237.983 42.2045 238.553 42.8821C239.138 43.5443 239.962 43.8754 241.025 43.8754C241.641 43.8754 242.18 43.7599 242.642 43.5289C243.104 43.2979 243.443 42.9437 243.658 42.4663H246.407C246.022 43.5751 245.368 44.4529 244.444 45.0997C243.535 45.7465 242.388 46.0699 241.002 46.0699Z" fill="white"/>
<path d="M132.932 64.8389V48.2069H137.598L142.68 64.2383H141.04L146.122 48.2069H150.812V64.8389H147.855V49.2002H148.34L143.397 64.8389H140.186L135.288 49.3388H135.75V64.8389H132.932ZM161.147 64.8389C161.07 64.5309 161.009 64.1921 160.963 63.8225C160.932 63.4529 160.916 63.0063 160.916 62.4827H160.824V56.8925C160.824 56.2765 160.647 55.8145 160.293 55.5065C159.954 55.1831 159.43 55.0214 158.722 55.0214C158.029 55.0214 157.475 55.1523 157.059 55.4141C156.658 55.6605 156.412 56.0224 156.32 56.4998H153.524C153.648 55.4064 154.171 54.5209 155.095 53.8433C156.019 53.1657 157.259 52.8269 158.814 52.8269C160.431 52.8269 161.656 53.1965 162.487 53.9357C163.319 54.6595 163.735 55.7298 163.735 57.1466V62.4827C163.735 62.8523 163.758 63.2296 163.804 63.6146C163.866 63.9996 163.95 64.4077 164.058 64.8389H161.147ZM157.059 65.0699C155.873 65.0699 154.926 64.7773 154.217 64.1921C153.524 63.5915 153.178 62.7907 153.178 61.7897C153.178 60.7117 153.571 59.857 154.356 59.2256C155.141 58.5942 156.25 58.1707 157.682 57.9551L161.355 57.4007V59.2487L158.168 59.7338C157.475 59.8416 156.951 60.0341 156.597 60.3113C156.258 60.5885 156.089 60.9735 156.089 61.4663C156.089 61.9129 156.25 62.2594 156.574 62.5058C156.897 62.7368 157.344 62.8523 157.913 62.8523C158.745 62.8523 159.438 62.6444 159.992 62.2286C160.547 61.8128 160.824 61.3046 160.824 60.704L161.147 62.4827C160.839 63.3297 160.331 63.9765 159.623 64.4231C158.93 64.8543 158.075 65.0699 157.059 65.0699ZM166.683 64.8389V53.0579H169.524V55.8299H169.593V64.8389H166.683ZM174.952 64.8389V57.4007C174.952 56.6769 174.768 56.1302 174.398 55.7606C174.028 55.391 173.489 55.2062 172.781 55.2062C172.165 55.2062 171.611 55.3448 171.118 55.622C170.64 55.8992 170.263 56.2842 169.986 56.777C169.724 57.2698 169.593 57.8396 169.593 58.4864L169.293 55.6682C169.693 54.8058 170.278 54.1205 171.048 53.6123C171.818 53.0887 172.742 52.8269 173.82 52.8269C175.099 52.8269 176.092 53.1888 176.8 53.9126C177.524 54.6364 177.886 55.5989 177.886 56.8001V64.8389H174.952ZM187.947 64.8389C187.87 64.5309 187.808 64.1921 187.762 63.8225C187.731 63.4529 187.716 63.0063 187.716 62.4827H187.624V56.8925C187.624 56.2765 187.447 55.8145 187.092 55.5065C186.754 55.1831 186.23 55.0214 185.522 55.0214C184.829 55.0214 184.274 55.1523 183.858 55.4141C183.458 55.6605 183.212 56.0224 183.119 56.4998H180.324C180.447 55.4064 180.971 54.5209 181.895 53.8433C182.819 53.1657 184.059 52.8269 185.614 52.8269C187.231 52.8269 188.455 53.1965 189.287 53.9357C190.118 54.6595 190.534 55.7298 190.534 57.1466V62.4827C190.534 62.8523 190.557 63.2296 190.604 63.6146C190.665 63.9996 190.75 64.4077 190.858 64.8389H187.947ZM183.858 65.0699C182.673 65.0699 181.725 64.7773 181.017 64.1921C180.324 63.5915 179.978 62.7907 179.978 61.7897C179.978 60.7117 180.37 59.857 181.156 59.2256C181.941 58.5942 183.05 58.1707 184.482 57.9551L188.155 57.4007V59.2487L184.967 59.7338C184.274 59.8416 183.751 60.0341 183.396 60.3113C183.058 60.5885 182.888 60.9735 182.888 61.4663C182.888 61.9129 183.05 62.2594 183.373 62.5058C183.697 62.7368 184.143 62.8523 184.713 62.8523C185.545 62.8523 186.238 62.6444 186.792 62.2286C187.346 61.8128 187.624 61.3046 187.624 60.704L187.947 62.4827C187.639 63.3297 187.131 63.9765 186.422 64.4231C185.729 64.8543 184.875 65.0699 183.858 65.0699ZM198.476 69.8054C196.921 69.8054 195.643 69.4666 194.642 68.789C193.656 68.1114 193.071 67.1951 192.886 66.0401H195.658C195.797 66.4405 196.097 66.7485 196.559 66.9641C197.036 67.1951 197.652 67.3106 198.407 67.3106C199.5 67.3106 200.309 67.0642 200.832 66.5714C201.356 66.094 201.618 65.3625 201.618 64.3769V61.8359L201.826 61.8821C201.641 62.7445 201.171 63.4375 200.417 63.9611C199.662 64.4693 198.738 64.7234 197.645 64.7234C196.597 64.7234 195.681 64.477 194.896 63.9842C194.126 63.4914 193.525 62.8061 193.094 61.9283C192.663 61.0351 192.447 59.9956 192.447 58.8098C192.447 57.6086 192.67 56.5614 193.117 55.6682C193.564 54.775 194.187 54.082 194.988 53.5892C195.804 53.081 196.751 52.8269 197.829 52.8269C198.938 52.8269 199.847 53.0964 200.555 53.6354C201.279 54.159 201.726 54.8905 201.895 55.8299L201.71 55.853V53.0579H204.551V64.3538C204.551 66.0324 204.005 67.3568 202.911 68.327C201.833 69.3126 200.355 69.8054 198.476 69.8054ZM198.592 62.4134C199.531 62.4134 200.278 62.0977 200.832 61.4663C201.402 60.8195 201.687 59.9186 201.687 58.7636C201.687 57.6086 201.402 56.7154 200.832 56.084C200.263 55.4526 199.508 55.1369 198.569 55.1369C197.645 55.1369 196.898 55.4603 196.328 56.1071C195.758 56.7385 195.473 57.6317 195.473 58.7867C195.473 59.9417 195.758 60.8349 196.328 61.4663C196.898 62.0977 197.652 62.4134 198.592 62.4134ZM212.939 65.0699C211.691 65.0699 210.598 64.8081 209.659 64.2845C208.735 63.7609 208.011 63.0371 207.487 62.1131C206.979 61.1891 206.725 60.1265 206.725 58.9253C206.725 57.7241 206.979 56.6692 207.487 55.7606C208.011 54.8366 208.735 54.1205 209.659 53.6123C210.583 53.0887 211.661 52.8269 212.893 52.8269C214.063 52.8269 215.079 53.0733 215.942 53.5661C216.804 54.0435 217.474 54.7211 217.952 55.5989C218.429 56.4767 218.668 57.5008 218.668 58.6712C218.668 58.8868 218.66 59.087 218.645 59.2718C218.629 59.4566 218.606 59.6414 218.575 59.8262H208.527V57.7934H216.335L215.734 58.3478C215.734 57.239 215.48 56.4074 214.972 55.853C214.463 55.2986 213.755 55.0214 212.846 55.0214C211.861 55.0214 211.075 55.3602 210.49 56.0378C209.92 56.7154 209.636 57.6933 209.636 58.9715C209.636 60.2343 209.92 61.2045 210.49 61.8821C211.075 62.5443 211.899 62.8754 212.962 62.8754C213.578 62.8754 214.117 62.7599 214.579 62.5289C215.041 62.2979 215.38 61.9437 215.595 61.4663H218.344C217.959 62.5751 217.305 63.4529 216.381 64.0997C215.472 64.7465 214.325 65.0699 212.939 65.0699ZM220.846 64.8389V53.0579H223.687V55.8299H223.756V64.8389H220.846ZM228.769 64.8389V57.239C228.769 56.546 228.592 56.0378 228.238 55.7144C227.899 55.3756 227.414 55.2062 226.782 55.2062C226.228 55.2062 225.72 55.3371 225.258 55.5989C224.796 55.8607 224.426 56.2303 224.149 56.7077C223.887 57.1851 223.756 57.7395 223.756 58.3709L223.456 55.6682C223.856 54.8058 224.434 54.1205 225.189 53.6123C225.943 53.0887 226.821 52.8269 227.822 52.8269C229.023 52.8269 229.97 53.1734 230.663 53.8664C231.356 54.544 231.703 55.4218 231.703 56.4998V64.8389H228.769ZM236.692 64.8389V57.239C236.692 56.546 236.523 56.0378 236.184 55.7144C235.845 55.3756 235.36 55.2062 234.729 55.2062C234.159 55.2062 233.643 55.3371 233.181 55.5989C232.719 55.8607 232.357 56.2303 232.095 56.7077C231.834 57.1851 231.703 57.7395 231.703 58.3709L231.195 55.6682C231.58 54.8058 232.165 54.1205 232.95 53.6123C233.736 53.0887 234.644 52.8269 235.676 52.8269C236.908 52.8269 237.87 53.1811 238.563 53.8895C239.272 54.5825 239.626 55.5065 239.626 56.6615V64.8389H236.692ZM247.882 65.0699C246.635 65.0699 245.541 64.8081 244.602 64.2845C243.678 63.7609 242.954 63.0371 242.431 62.1131C241.922 61.1891 241.668 60.1265 241.668 58.9253C241.668 57.7241 241.922 56.6692 242.431 55.7606C242.954 54.8366 243.678 54.1205 244.602 53.6123C245.526 53.0887 246.604 52.8269 247.836 52.8269C249.006 52.8269 250.023 53.0733 250.885 53.5661C251.748 54.0435 252.417 54.7211 252.895 55.5989C253.372 56.4767 253.611 57.5008 253.611 58.6712C253.611 58.8868 253.603 59.087 253.588 59.2718C253.572 59.4566 253.549 59.6414 253.519 59.8262H243.47V57.7934H251.278L250.677 58.3478C250.677 57.239 250.423 56.4074 249.915 55.853C249.407 55.2986 248.698 55.0214 247.79 55.0214C246.804 55.0214 246.019 55.3602 245.434 56.0378C244.864 56.7154 244.579 57.6933 244.579 58.9715C244.579 60.2343 244.864 61.2045 245.434 61.8821C246.019 62.5443 246.843 62.8754 247.905 62.8754C248.521 62.8754 249.06 62.7599 249.522 62.5289C249.984 62.2979 250.323 61.9437 250.539 61.4663H253.288C252.903 62.5751 252.248 63.4529 251.324 64.0997C250.415 64.7465 249.268 65.0699 247.882 65.0699ZM255.789 64.8389V53.0579H258.63V55.8299H258.7V64.8389H255.789ZM264.059 64.8389V57.4007C264.059 56.6769 263.874 56.1302 263.504 55.7606C263.135 55.391 262.596 55.2062 261.887 55.2062C261.271 55.2062 260.717 55.3448 260.224 55.622C259.747 55.8992 259.37 56.2842 259.092 56.777C258.831 57.2698 258.7 57.8396 258.7 58.4864L258.399 55.6682C258.8 54.8058 259.385 54.1205 260.155 53.6123C260.925 53.0887 261.849 52.8269 262.927 52.8269C264.205 52.8269 265.198 53.1888 265.907 53.9126C266.631 54.6364 266.993 55.5989 266.993 56.8001V64.8389H264.059ZM274.795 65.0699C273.347 65.0699 272.277 64.7311 271.584 64.0535C270.906 63.3605 270.567 62.3287 270.567 60.9581V50.3783L273.501 49.2926V61.0274C273.501 61.5972 273.655 62.0207 273.963 62.2979C274.271 62.5751 274.756 62.7137 275.418 62.7137C275.68 62.7137 275.911 62.6983 276.111 62.6675C276.327 62.6213 276.527 62.5674 276.712 62.5058V64.7696C276.527 64.862 276.265 64.9313 275.926 64.9775C275.588 65.0391 275.21 65.0699 274.795 65.0699ZM268.303 55.3448V53.0579H276.712V55.3448H268.303Z" fill="white"/>
<path d="M132.932 83.8389V67.2069H140.394C141.61 67.2069 142.65 67.4148 143.512 67.8306C144.39 68.2464 145.06 68.8316 145.522 69.5862C145.999 70.3408 146.238 71.234 146.238 72.2658C146.238 73.2822 145.999 74.1754 145.522 74.9454C145.044 75.7154 144.374 76.316 143.512 76.7472C142.65 77.163 141.61 77.3709 140.394 77.3709H135.265V75.0147H140.255C141.21 75.0147 141.941 74.7683 142.449 74.2755C142.973 73.7827 143.235 73.1128 143.235 72.2658C143.235 71.4342 142.973 70.7797 142.449 70.3023C141.941 69.8249 141.21 69.5862 140.255 69.5862H135.935V83.8389H132.932ZM155.079 83.8389C155.002 83.5309 154.941 83.1921 154.894 82.8225C154.864 82.4529 154.848 82.0063 154.848 81.4827H154.756V75.8925C154.756 75.2765 154.579 74.8145 154.224 74.5065C153.886 74.1831 153.362 74.0214 152.654 74.0214C151.961 74.0214 151.406 74.1523 150.99 74.4141C150.59 74.6605 150.344 75.0224 150.251 75.4998H147.456C147.579 74.4064 148.103 73.5209 149.027 72.8433C149.951 72.1657 151.191 71.8269 152.746 71.8269C154.363 71.8269 155.587 72.1965 156.419 72.9357C157.251 73.6595 157.666 74.7298 157.666 76.1466V81.4827C157.666 81.8523 157.689 82.2296 157.736 82.6146C157.797 82.9996 157.882 83.4077 157.99 83.8389H155.079ZM150.99 84.0699C149.805 84.0699 148.858 83.7773 148.149 83.1921C147.456 82.5915 147.11 81.7907 147.11 80.7897C147.11 79.7117 147.502 78.857 148.288 78.2256C149.073 77.5942 150.182 77.1707 151.614 76.9551L155.287 76.4007V78.2487L152.099 78.7338C151.406 78.8416 150.883 79.0341 150.528 79.3113C150.19 79.5885 150.02 79.9735 150.02 80.4663C150.02 80.9129 150.182 81.2594 150.505 81.5058C150.829 81.7368 151.275 81.8523 151.845 81.8523C152.677 81.8523 153.37 81.6444 153.924 81.2286C154.479 80.8128 154.756 80.3046 154.756 79.704L155.079 81.4827C154.771 82.3297 154.263 82.9765 153.555 83.4231C152.862 83.8543 152.007 84.0699 150.99 84.0699ZM160.614 83.8389V72.0579H163.456V74.8992H163.525V83.8389H160.614ZM163.525 77.6943L163.225 74.8992C163.502 73.8982 163.972 73.1359 164.634 72.6123C165.296 72.0887 166.089 71.8269 167.013 71.8269C167.336 71.8269 167.567 71.8577 167.706 71.9193V74.6682C167.629 74.6374 167.521 74.622 167.383 74.622C167.244 74.6066 167.075 74.5989 166.874 74.5989C165.75 74.5989 164.911 74.8453 164.357 75.3381C163.802 75.8309 163.525 76.6163 163.525 77.6943ZM175.198 84.0699C173.751 84.0699 172.68 83.7311 171.987 83.0535C171.31 82.3605 170.971 81.3287 170.971 79.9581V69.3783L173.905 68.2926V80.0274C173.905 80.5972 174.059 81.0207 174.367 81.2979C174.675 81.5751 175.16 81.7137 175.822 81.7137C176.084 81.7137 176.315 81.6983 176.515 81.6675C176.731 81.6213 176.931 81.5674 177.116 81.5058V83.7696C176.931 83.862 176.669 83.9313 176.33 83.9775C175.991 84.0391 175.614 84.0699 175.198 84.0699ZM168.707 74.3448V72.0579H177.116V74.3448H168.707ZM179.293 83.8389V72.0579H182.134V74.8299H182.203V83.8389H179.293ZM187.563 83.8389V76.4007C187.563 75.6769 187.378 75.1302 187.008 74.7606C186.639 74.391 186.1 74.2062 185.391 74.2062C184.775 74.2062 184.221 74.3448 183.728 74.622C183.251 74.8992 182.873 75.2842 182.596 75.777C182.334 76.2698 182.203 76.8396 182.203 77.4864L181.903 74.6682C182.304 73.8058 182.889 73.1205 183.659 72.6123C184.429 72.0887 185.353 71.8269 186.431 71.8269C187.709 71.8269 188.702 72.1888 189.411 72.9126C190.134 73.6364 190.496 74.5989 190.496 75.8001V83.8389H187.563ZM198.727 84.0699C197.48 84.0699 196.386 83.8081 195.447 83.2845C194.523 82.7609 193.799 82.0371 193.275 81.1131C192.767 80.1891 192.513 79.1265 192.513 77.9253C192.513 76.7241 192.767 75.6692 193.275 74.7606C193.799 73.8366 194.523 73.1205 195.447 72.6123C196.371 72.0887 197.449 71.8269 198.681 71.8269C199.851 71.8269 200.868 72.0733 201.73 72.5661C202.592 73.0435 203.262 73.7211 203.74 74.5989C204.217 75.4767 204.456 76.5008 204.456 77.6712C204.456 77.8868 204.448 78.087 204.433 78.2718C204.417 78.4566 204.394 78.6414 204.363 78.8262H194.315V76.7934H202.123L201.522 77.3478C201.522 76.239 201.268 75.4074 200.76 74.853C200.252 74.2986 199.543 74.0214 198.635 74.0214C197.649 74.0214 196.864 74.3602 196.278 75.0378C195.709 75.7154 195.424 76.6933 195.424 77.9715C195.424 79.2343 195.709 80.2045 196.278 80.8821C196.864 81.5443 197.687 81.8754 198.75 81.8754C199.366 81.8754 199.905 81.7599 200.367 81.5289C200.829 81.2979 201.168 80.9437 201.383 80.4663H204.132C203.747 81.5751 203.093 82.4529 202.169 83.0997C201.26 83.7465 200.113 84.0699 198.727 84.0699ZM206.634 83.8389V72.0579H209.475V74.8992H209.544V83.8389H206.634ZM209.544 77.6943L209.244 74.8992C209.521 73.8982 209.991 73.1359 210.653 72.6123C211.315 72.0887 212.109 71.8269 213.033 71.8269C213.356 71.8269 213.587 71.8577 213.726 71.9193V74.6682C213.649 74.6374 213.541 74.622 213.402 74.622C213.264 74.6066 213.094 74.5989 212.894 74.5989C211.77 74.5989 210.93 74.8453 210.376 75.3381C209.822 75.8309 209.544 76.6163 209.544 77.6943ZM219.936 84.0699C218.304 84.0699 217.002 83.7311 216.032 83.0535C215.062 82.3605 214.531 81.4057 214.438 80.1891H217.095C217.172 80.7897 217.457 81.244 217.95 81.552C218.442 81.86 219.105 82.014 219.936 82.014C220.691 82.014 221.253 81.8985 221.622 81.6675C222.007 81.4211 222.2 81.0746 222.2 80.628C222.2 80.3046 222.092 80.0428 221.877 79.8426C221.661 79.627 221.253 79.4499 220.652 79.3113L218.758 78.8724C217.464 78.5952 216.502 78.164 215.871 77.5788C215.255 76.9782 214.947 76.2313 214.947 75.3381C214.947 74.2447 215.362 73.39 216.194 72.774C217.041 72.1426 218.204 71.8269 219.682 71.8269C221.145 71.8269 222.315 72.1426 223.193 72.774C224.086 73.39 224.579 74.2447 224.672 75.3381H222.015C221.938 74.8607 221.692 74.4988 221.276 74.2524C220.876 74.006 220.321 73.8828 219.613 73.8828C218.951 73.8828 218.45 73.9906 218.111 74.2062C217.772 74.4064 217.603 74.7067 217.603 75.1071C217.603 75.4151 217.734 75.6769 217.996 75.8925C218.258 76.0927 218.696 76.2698 219.312 76.4238L221.345 76.8858C222.5 77.1476 223.37 77.6019 223.956 78.2487C224.556 78.8955 224.856 79.6578 224.856 80.5356C224.856 81.6598 224.425 82.5299 223.563 83.1459C222.7 83.7619 221.492 84.0699 219.936 84.0699Z" fill="white"/>
</svg>
